<?xml version="1.0" encoding="UTF-8" standalone="no"?>
<!DOCTYPE svg PUBLIC "-//W3C//DTD SVG 1.1//EN" "http://www.w3.org/Graphics/SVG/1.1/DTD/svg11.dtd">
<svg width="100%" height="100%" viewBox="0 0 300 80" version="1.1" xmlns="http://www.w3.org/2000/svg" xmlns:xlink="http://www.w3.org/1999/xlink" xml:space="preserve" xmlns:serif="http://www.serif.com/" style="fill-rule:evenodd;clip-rule:evenodd;stroke-linecap:round;stroke-linejoin:round;stroke-miterlimit:1.5;">
    <g transform="matrix(1.86413,0,0,1.78136,-73.5067,24.666)">
        <g transform="matrix(36,0,0,36,78.9793,21.4112)">
            <path d="M0.072,-0.714L0.072,0L0.389,0C0.462,0 0.52,-0.015 0.562,-0.043C0.611,-0.077 0.636,-0.129 0.636,-0.199C0.636,-0.247 0.622,-0.285 0.596,-0.315C0.57,-0.345 0.534,-0.365 0.487,-0.373C0.523,-0.385 0.552,-0.404 0.574,-0.43C0.595,-0.459 0.606,-0.494 0.606,-0.534C0.606,-0.59 0.587,-0.634 0.549,-0.666C0.51,-0.698 0.457,-0.714 0.391,-0.714L0.072,-0.714ZM0.154,-0.645L0.372,-0.645C0.422,-0.645 0.46,-0.636 0.486,-0.616C0.512,-0.596 0.525,-0.566 0.525,-0.526C0.525,-0.485 0.511,-0.454 0.485,-0.433C0.459,-0.413 0.421,-0.402 0.371,-0.402L0.154,-0.402L0.154,-0.645ZM0.154,-0.334L0.382,-0.334C0.437,-0.334 0.479,-0.324 0.508,-0.302C0.538,-0.28 0.554,-0.246 0.554,-0.2C0.554,-0.154 0.536,-0.119 0.501,-0.097C0.471,-0.079 0.432,-0.069 0.382,-0.069L0.154,-0.069L0.154,-0.334Z" style="fill-rule:nonzero;"/>
        </g>
        <g transform="matrix(36,0,0,36,103.351,21.4112)">
            <path d="M0.128,-0.712C0.111,-0.712 0.097,-0.707 0.085,-0.695C0.073,-0.685 0.068,-0.671 0.068,-0.653C0.068,-0.636 0.073,-0.622 0.085,-0.61C0.097,-0.599 0.111,-0.593 0.128,-0.593C0.145,-0.593 0.159,-0.599 0.171,-0.61C0.183,-0.622 0.189,-0.636 0.189,-0.653C0.189,-0.671 0.183,-0.685 0.171,-0.695C0.159,-0.707 0.145,-0.712 0.128,-0.712ZM0.088,-0.517L0.088,0L0.168,0L0.168,-0.517L0.088,-0.517Z" style="fill-rule:nonzero;"/>
        </g>
        <g transform="matrix(36,0,0,36,112.567,21.4112)">
            <path d="M0.2,-0.684L0.121,-0.651L0.121,-0.517L0.017,-0.517L0.017,-0.45L0.121,-0.45L0.121,-0.121C0.121,-0.082 0.129,-0.053 0.146,-0.033C0.164,-0.011 0.195,0 0.237,0L0.315,0L0.315,-0.067L0.249,-0.067C0.231,-0.067 0.218,-0.072 0.211,-0.08C0.203,-0.088 0.2,-0.102 0.2,-0.121L0.2,-0.45L0.328,-0.45L0.328,-0.517L0.2,-0.517L0.2,-0.684Z" style="fill-rule:nonzero;"/>
        </g>
        <g transform="matrix(36,0,0,36,125.347,21.4112)">
            <path d="M0.072,-0.714L0.072,0L0.154,0L0.154,-0.292L0.363,-0.292C0.527,-0.292 0.61,-0.363 0.61,-0.504C0.61,-0.644 0.528,-0.714 0.364,-0.714L0.072,-0.714ZM0.154,-0.643L0.359,-0.643C0.416,-0.643 0.458,-0.632 0.486,-0.608C0.514,-0.587 0.528,-0.552 0.528,-0.504C0.528,-0.456 0.514,-0.421 0.487,-0.398C0.459,-0.375 0.417,-0.363 0.359,-0.363L0.154,-0.363L0.154,-0.643Z" style="fill-rule:nonzero;"/>
        </g>
        <g transform="matrix(36,0,0,36,148.459,21.4112)">
            <rect x="0.078" y="-0.728" width="0.079" height="0.728" style="fill-rule:nonzero;"/>
        </g>
        <g transform="matrix(36,0,0,36,156.919,21.4112)">
            <path d="M0.275,-0.531C0.2,-0.531 0.141,-0.504 0.097,-0.45C0.053,-0.399 0.032,-0.335 0.032,-0.259C0.032,-0.175 0.054,-0.109 0.1,-0.059C0.144,-0.011 0.204,0.014 0.278,0.014C0.345,0.014 0.4,-0.006 0.443,-0.044C0.478,-0.076 0.501,-0.116 0.513,-0.166L0.433,-0.166C0.42,-0.13 0.403,-0.103 0.381,-0.085C0.355,-0.064 0.32,-0.053 0.278,-0.053C0.229,-0.053 0.19,-0.069 0.162,-0.101C0.134,-0.133 0.119,-0.178 0.115,-0.236L0.523,-0.236C0.521,-0.326 0.501,-0.397 0.463,-0.447C0.421,-0.503 0.358,-0.531 0.275,-0.531ZM0.277,-0.464C0.375,-0.464 0.43,-0.409 0.44,-0.298L0.117,-0.298C0.122,-0.349 0.138,-0.389 0.166,-0.419C0.194,-0.449 0.231,-0.464 0.277,-0.464Z" style="fill-rule:nonzero;"/>
        </g>
        <g transform="matrix(36,0,0,36,176.899,21.4112)">
            <path d="M0.027,-0.517L0.21,-0.274L0.005,0L0.1,0L0.255,-0.215L0.409,0L0.504,0L0.299,-0.274L0.482,-0.517L0.388,-0.517L0.255,-0.333L0.121,-0.517L0.027,-0.517Z" style="fill-rule:nonzero;"/>
        </g>
    </g>
    <g transform="matrix(1,0,0,1,3.94562,4.3636)">
        <path d="M55.174,20.026L55.013,50.026" style="fill:none;stroke:rgb(100,100,100);stroke-width:1px;"/>
    </g>
    <g transform="matrix(1,0,0,1,3.94562,4.3636)">
        <path d="M19.974,55L49.862,55" style="fill:none;stroke:rgb(100,100,100);stroke-width:1px;"/>
    </g>
    <g transform="matrix(1,0,0,1,3.94562,4.3636)">
        <path d="M19.981,15L50,15" style="fill:none;stroke:rgb(100,100,100);stroke-width:1px;"/>
    </g>
    <g transform="matrix(1,0,0,1,3.94562,4.3636)">
        <path d="M39.891,35L50.026,35.026" style="fill:none;stroke:rgb(100,100,100);stroke-width:1px;"/>
    </g>
    <g transform="matrix(1,0,0,1,3.94562,4.3636)">
        <path d="M14.972,20L14.987,50" style="fill:none;stroke:rgb(100,100,100);stroke-width:1px;"/>
    </g>
    <path d="M38.933,44.364L38.933,54.364" style="fill:none;stroke:rgb(100,100,100);stroke-width:1px;"/>
    <g transform="matrix(1,0,0,1,3.94562,4.3636)">
        <g>
            <g transform="matrix(1,0,0,1.0124,0,-0.00847966)">
                <ellipse cx="14.972" cy="14.825" rx="5.009" ry="4.939"/>
            </g>
            <g transform="matrix(1,0,0,1.0124,20.0049,-0.00847966)">
                <ellipse cx="14.972" cy="14.825" rx="5.009" ry="4.939"/>
            </g>
            <g transform="matrix(1,0,0,1.0124,40.0368,0.0170926)">
                <ellipse cx="14.972" cy="14.825" rx="5.009" ry="4.939"/>
            </g>
        </g>
        <g transform="matrix(0.995631,0,0,1,0.0803666,20)">
            <g transform="matrix(1,0,0,1.0124,0,-0.00847966)">
                <ellipse cx="14.972" cy="14.825" rx="5.009" ry="4.939"/>
            </g>
            <g transform="matrix(1,0,0,1.0124,20.0878,-0.00847966)">
                <ellipse cx="14.972" cy="14.825" rx="5.009" ry="4.939" style="fill:rgb(234,88,111);"/>
            </g>
            <g transform="matrix(1,0,0,1.0124,40.0368,-0.00847966)">
                <ellipse cx="14.972" cy="14.825" rx="5.009" ry="4.939" style="fill:rgb(234,88,111);"/>
            </g>
        </g>
        <g transform="matrix(0.995631,0,0,1,1.08037,40)">
            <g transform="matrix(1,0,0,1.0124,-1.00439,-0.00847966)">
                <ellipse cx="14.972" cy="14.825" rx="5.009" ry="4.939"/>
            </g>
            <g transform="matrix(1,0,0,1.0124,19.0834,-0.00847966)">
                <ellipse cx="14.972" cy="14.825" rx="5.009" ry="4.939"/>
            </g>
            <g transform="matrix(1,0,0,1.0124,39.1711,0.0170926)">
                <ellipse cx="14.972" cy="14.825" rx="5.009" ry="4.939"/>
            </g>
        </g>
    </g>
</svg>
